<svg xmlns="http://www.w3.org/2000/svg" viewBox="0 0 679.97 168.68"><defs><style>.cls-1{font-size:128.91px;font-family:Coiny-Regular, Coiny;}.cls-1,.cls-4{fill:#10702e;}.cls-2{letter-spacing:-0.15em;}.cls-3{letter-spacing:0em;}</style></defs><g id="Camada_2" data-name="Camada 2"><g id="delicatto"><text class="cls-1" transform="translate(0 108.61)">delicaT<tspan class="cls-2" x="489.47" y="0">T</tspan><tspan class="cls-3" x="565.14" y="0">o</tspan></text></g><g id="petshop"><path class="cls-4" d="M16.43,139.58a.9.9,0,0,1-.64-.22.87.87,0,0,1-.22-.64v-17.1a.9.9,0,0,1,.22-.67.86.86,0,0,1,.64-.22A.82.82,0,0,1,17,121a.91.91,0,0,1,.23.67v2.83l-.31-.16a4.75,4.75,0,0,1,1.81-2.65,5.37,5.37,0,0,1,3.22-1,5.77,5.77,0,0,1,3.16.86A5.67,5.67,0,0,1,27.23,124a9.65,9.65,0,0,1,0,7.41,5.54,5.54,0,0,1-2.07,2.42,5.73,5.73,0,0,1-3.17.85,5.37,5.37,0,0,1-3.22-1A4.75,4.75,0,0,1,17,131.07h.31v7.65a.88.88,0,0,1-.23.64A.86.86,0,0,1,16.43,139.58Zm5.31-6.37a4.35,4.35,0,0,0,2.38-.65,4.22,4.22,0,0,0,1.57-1.91,7.34,7.34,0,0,0,.56-3A6.15,6.15,0,0,0,25,123.56a4.08,4.08,0,0,0-3.28-1.44,4.27,4.27,0,0,0-2.38.65,4.33,4.33,0,0,0-1.57,1.89,7.29,7.29,0,0,0-.55,3,6.2,6.2,0,0,0,1.22,4.11A4.07,4.07,0,0,0,21.74,133.21Z"/><path class="cls-4" d="M37.42,134.63a7.21,7.21,0,0,1-3.58-.84,5.61,5.61,0,0,1-2.31-2.39,7.88,7.88,0,0,1-.81-3.69,8,8,0,0,1,.81-3.69,6,6,0,0,1,5.53-3.35,5.89,5.89,0,0,1,2.41.46,5.12,5.12,0,0,1,1.78,1.31,5.79,5.79,0,0,1,1.12,2,8.93,8.93,0,0,1,.39,2.74.77.77,0,0,1-.21.59A.8.8,0,0,1,42,128H32v-1.25H41.7l-.44.36a7.2,7.2,0,0,0-.47-2.74,3.74,3.74,0,0,0-1.41-1.73,4.06,4.06,0,0,0-2.29-.62,4.58,4.58,0,0,0-2.59.71,4.36,4.36,0,0,0-1.58,2,7.21,7.21,0,0,0-.53,2.85v.14a5.89,5.89,0,0,0,1.31,4.1,4.72,4.72,0,0,0,3.67,1.43,6.87,6.87,0,0,0,2-.28,6,6,0,0,0,1.88-.94,1,1,0,0,1,.54-.2.71.71,0,0,1,.7.49.57.57,0,0,1,0,.44,1,1,0,0,1-.37.44,6.27,6.27,0,0,1-2.14,1.09A8.74,8.74,0,0,1,37.42,134.63Z"/><path class="cls-4" d="M51.3,134.63a5.15,5.15,0,0,1-2.51-.56,3.58,3.58,0,0,1-1.5-1.6,6,6,0,0,1-.5-2.57v-7.62H44.73a.89.89,0,0,1-.58-.18.61.61,0,0,1-.22-.51.59.59,0,0,1,.22-.49.89.89,0,0,1,.58-.18h2.06v-3.47a.77.77,0,0,1,.86-.87.88.88,0,0,1,.62.21.9.9,0,0,1,.22.66v3.47h3.75a.85.85,0,0,1,.59.18.63.63,0,0,1,.19.49.66.66,0,0,1-.19.51.85.85,0,0,1-.59.18H48.49v7.4a4.18,4.18,0,0,0,.69,2.59,2.78,2.78,0,0,0,2.31.89,3.06,3.06,0,0,0,.93-.13,2.14,2.14,0,0,1,.63-.12.47.47,0,0,1,.35.16.78.78,0,0,1,.15.53,1,1,0,0,1-.1.44.44.44,0,0,1-.35.28,4.29,4.29,0,0,1-.83.21A5,5,0,0,1,51.3,134.63Z"/><path class="cls-4" d="M59.92,134.63a9.17,9.17,0,0,1-2.49-.34,7.18,7.18,0,0,1-2.35-1.13.64.64,0,0,1-.29-.35.78.78,0,0,1,0-.43A.72.72,0,0,1,55,132a.65.65,0,0,1,.38-.18.69.69,0,0,1,.47.14,7.18,7.18,0,0,0,2.11,1,7.74,7.74,0,0,0,2.06.28,4.4,4.4,0,0,0,2.59-.64,2,2,0,0,0,.89-1.72,1.7,1.7,0,0,0-.57-1.38,4.4,4.4,0,0,0-1.85-.79l-2.42-.56A5,5,0,0,1,56,126.89a3.19,3.19,0,0,1-.83-2.27,3.6,3.6,0,0,1,.62-2.09,4,4,0,0,1,1.78-1.37,6.71,6.71,0,0,1,2.66-.49,7.52,7.52,0,0,1,2.33.36,5.3,5.3,0,0,1,2,1.11.8.8,0,0,1,.29.39.63.63,0,0,1,0,.43.7.7,0,0,1-.23.35.55.55,0,0,1-.39.14.88.88,0,0,1-.48-.16,5.79,5.79,0,0,0-1.69-.91,5.91,5.91,0,0,0-1.81-.29,4,4,0,0,0-2.49.67,2.14,2.14,0,0,0-.87,1.8A1.85,1.85,0,0,0,57.4,126a3.5,3.5,0,0,0,1.71.81l2.42.56a6,6,0,0,1,2.7,1.23,2.88,2.88,0,0,1,.88,2.21,3.33,3.33,0,0,1-1.4,2.83A6.26,6.26,0,0,1,59.92,134.63Z"/><path class="cls-4" d="M69.67,134.57a.87.87,0,0,1-.64-.22.9.9,0,0,1-.22-.64V115.5a.88.88,0,0,1,.22-.65.91.91,0,0,1,.64-.21.76.76,0,0,1,.84.86v8.56h-.34a4.65,4.65,0,0,1,1.91-2.53,6.22,6.22,0,0,1,5.78-.28,3.62,3.62,0,0,1,1.6,1.76A7,7,0,0,1,80,125.9v7.81a.86.86,0,0,1-.22.64,1,1,0,0,1-1.25,0,.86.86,0,0,1-.23-.64V126a4.5,4.5,0,0,0-.8-3,3.22,3.22,0,0,0-2.56-.94,4.29,4.29,0,0,0-3.21,1.24,4.54,4.54,0,0,0-1.21,3.33v7A.75.75,0,0,1,69.67,134.57Z"/><path class="cls-4" d="M89.75,134.63a6.12,6.12,0,0,1-3.28-.86,5.78,5.78,0,0,1-2.16-2.42,8.31,8.31,0,0,1-.76-3.7,8.81,8.81,0,0,1,.43-2.86,6.3,6.3,0,0,1,1.25-2.21,5.35,5.35,0,0,1,2-1.42,6.41,6.41,0,0,1,2.55-.49,6.2,6.2,0,0,1,3.31.86A5.82,5.82,0,0,1,95.21,124a8.28,8.28,0,0,1,.77,3.68,8.91,8.91,0,0,1-.44,2.89,6.1,6.1,0,0,1-1.25,2.2,5.38,5.38,0,0,1-2,1.4A6.42,6.42,0,0,1,89.75,134.63Zm0-1.42a4.37,4.37,0,0,0,2.4-.65,4.14,4.14,0,0,0,1.56-1.91,7.52,7.52,0,0,0,.54-3A6.2,6.2,0,0,0,93,123.56a4.06,4.06,0,0,0-3.29-1.44,4.07,4.07,0,0,0-3.94,2.54,7.47,7.47,0,0,0-.54,3,6.15,6.15,0,0,0,1.23,4.11A4,4,0,0,0,89.75,133.21Z"/><path class="cls-4" d="M100.45,139.58a.9.9,0,0,1-.64-.22.87.87,0,0,1-.22-.64v-17.1a.9.9,0,0,1,.22-.67.86.86,0,0,1,.64-.22.8.8,0,0,1,.61.22.91.91,0,0,1,.23.67v2.83l-.31-.16a4.8,4.8,0,0,1,1.81-2.65,5.37,5.37,0,0,1,3.22-1,5.77,5.77,0,0,1,3.16.86,5.67,5.67,0,0,1,2.08,2.42,9.65,9.65,0,0,1,0,7.41,5.54,5.54,0,0,1-2.07,2.42,5.73,5.73,0,0,1-3.17.85,5.37,5.37,0,0,1-3.22-1,4.8,4.8,0,0,1-1.81-2.59h.31v7.65a.88.88,0,0,1-.23.64A.84.84,0,0,1,100.45,139.58Zm5.31-6.37a4.35,4.35,0,0,0,2.38-.65,4.22,4.22,0,0,0,1.57-1.91,7.34,7.34,0,0,0,.56-3,6.15,6.15,0,0,0-1.23-4.09,4.08,4.08,0,0,0-3.28-1.44,4.21,4.21,0,0,0-2.37.65,4.35,4.35,0,0,0-1.58,1.89,7.29,7.29,0,0,0-.55,3,6.2,6.2,0,0,0,1.22,4.11A4.07,4.07,0,0,0,105.76,133.21Z"/></g><g id="patinha"><ellipse class="cls-4" cx="652.88" cy="99.3" rx="2.5" ry="3.5"/><ellipse class="cls-4" cx="660.34" cy="90.38" rx="2.5" ry="3.5"/><ellipse class="cls-4" cx="668.92" cy="90.38" rx="2.5" ry="3.5"/><ellipse class="cls-4" cx="677.47" cy="99.3" rx="2.5" ry="3.5"/><g id="Camada_7" data-name="Camada 7"><path class="cls-4" d="M660.06,109.5h-.21a2.1,2.1,0,0,1-1.39-.46c-.24-.23-.46-.5-.69-.75a2.29,2.29,0,0,1-.38-.54c-1.07-2,.33-4.81,1.24-6.52,2.16-3.22,7.9-7.23,12.92.8,0,0,4,7.22-2,7.22a9.58,9.58,0,0,1-1.45-1,6.19,6.19,0,0,0-1.63-1,2.6,2.6,0,0,0-1-.16,2.49,2.49,0,0,0-.8.25c-1.28.48-2.25,1.69-3.56,2.05A3.62,3.62,0,0,1,660.06,109.5Z"/><path class="cls-4" d="M660.06,108l-.45,0-.2-.06c.17.11.15.07-.07-.12a5.7,5.7,0,0,1-.66-.81,2.77,2.77,0,0,1-.07-1.8,10,10,0,0,1,1.58-3.58c.23-.31-.2.24.06-.07l.19-.23c.16-.17.31-.34.47-.5l.47-.44.3-.26c.21-.17-.13.08.17-.13a11.12,11.12,0,0,1,1.2-.71s.44-.19.14-.07l.38-.13a6.36,6.36,0,0,1,.78-.2c.43-.09-.3,0,.14,0l.27,0a4.57,4.57,0,0,1,.83,0c-.28,0,.37.09.46.11a3.4,3.4,0,0,1,.65.25,8.42,8.42,0,0,1,3.12,2.9,8.15,8.15,0,0,1,.77,1.34c.08.17.17.42,0,.09l.21.52a10.74,10.74,0,0,1,.34,1.1c.06.25.11.5.16.75-.08-.4,0,.22,0,.36s0,.42,0,.63c0-.45-.07.15-.11.28.14-.53,0,0,0,0l-.1.17c.14-.17.16-.2,0-.07l-.14.14c-.14.14.22-.08-.13.08-.06,0-.41.16-.08,0-.12,0-.25.08-.37.12a2.5,2.5,0,0,1-.85.07l.76.21c-1.78-.94-3.44-3-5.7-2.17a10.81,10.81,0,0,0-2.42,1.34,3.38,3.38,0,0,1-2.17.88c-1.93,0-1.93,3,0,3a5.8,5.8,0,0,0,3.6-1.22c.71-.5,1.64-1.44,2.53-1,1.2.55,2.08,2,3.49,2a5.48,5.48,0,0,0,2.67-.61c2.66-1.43,2.18-4.87,1.24-7.21a11.51,11.51,0,0,0-6.31-6.7c-3.15-1.17-6.53.36-8.71,2.68a12,12,0,0,0-2.9,5.69,5.57,5.57,0,0,0,.54,4.1,6.45,6.45,0,0,0,1.51,1.66,4.18,4.18,0,0,0,2.34.65C662,111.1,662,108.1,660.06,108Z"/></g></g></g></svg>